<?xml version="1.0" standalone="no"?>
<!DOCTYPE svg PUBLIC "-//W3C//DTD SVG 20010904//EN"
 "http://www.w3.org/TR/2001/REC-SVG-20010904/DTD/svg10.dtd">
<svg version="1.0" xmlns="http://www.w3.org/2000/svg"
 width="260.000000pt" height="260.000000pt" viewBox="0 0 260.000000 260.000000"
 preserveAspectRatio="xMidYMid meet">
<metadata>
Created by potrace 1.14, written by Peter Selinger 2001-2017
</metadata>
<g transform="translate(0.000000,260.000000) scale(0.100000,-0.100000)"
fill="#000000" stroke="none">
<path d="M890 1547 c0 -227 -5 -450 -10 -495 -14 -109 -43 -185 -89 -231 -50
-50 -105 -64 -228 -59 -80 3 -109 9 -157 31 -32 15 -60 26 -61 25 -1 -2 -9
-24 -18 -50 l-16 -47 32 -19 c69 -42 137 -56 257 -56 96 0 125 4 175 23 80 31
154 106 185 187 46 123 52 183 57 657 l5 447 -66 0 -66 0 0 -413z"/>
<path d="M1611 1944 c-196 -53 -361 -248 -407 -484 -72 -367 144 -755 451
-811 142 -26 309 28 427 139 48 45 98 119 98 145 0 8 -19 26 -42 40 l-43 25
-27 -48 c-34 -60 -107 -125 -178 -159 -48 -23 -68 -26 -155 -26 -90 0 -105 3
-153 28 -115 60 -203 171 -249 311 -21 66 -26 101 -27 191 -1 122 12 186 55
283 40 89 90 153 151 195 74 51 130 68 218 69 131 0 245 -60 310 -164 19 -29
35 -55 37 -57 5 -7 83 52 83 63 0 22 -59 105 -105 150 -115 109 -287 152 -444
110z"/>
</g>
</svg>
