<?xml version="1.0" standalone="no"?>
<!DOCTYPE svg PUBLIC "-//W3C//DTD SVG 20010904//EN"
 "http://www.w3.org/TR/2001/REC-SVG-20010904/DTD/svg10.dtd">
<svg version="1.0" xmlns="http://www.w3.org/2000/svg"
 width="260.000000pt" height="260.000000pt" viewBox="0 0 260.000000 260.000000"
 preserveAspectRatio="xMidYMid meet">
<metadata>
Created by potrace 1.14, written by Peter Selinger 2001-2017
</metadata>
<g transform="translate(0.000000,260.000000) scale(0.100000,-0.100000)"
fill="#000000" stroke="none">
<path d="M130 2587 c-47 -15 -107 -78 -120 -126 -7 -27 -9 -395 -8 -1178 3
-1132 3 -1138 24 -1178 11 -22 40 -53 63 -70 l43 -30 1161 0 c1159 0 1162 0
1202 21 22 11 54 40 70 63 l30 43 0 1161 c0 1159 0 1162 -21 1202 -11 22 -40
54 -63 70 l-43 30 -1151 2 c-820 1 -1162 -2 -1187 -10z m917 -1074 c-5 -496
-8 -536 -57 -665 -28 -75 -104 -159 -173 -192 -137 -65 -350 -60 -491 10 -28
14 -55 29 -60 34 -5 5 2 47 19 103 l28 93 69 -35 c59 -30 80 -35 156 -39 110
-5 166 9 209 54 65 69 67 85 71 622 l3 482 115 0 116 0 -5 -467z m967 438 c77
-27 139 -64 195 -115 45 -42 121 -149 121 -172 0 -12 -150 -114 -169 -114 -6
0 -22 21 -35 48 -59 115 -182 178 -335 171 -178 -9 -318 -139 -366 -341 -54
-232 50 -480 241 -574 53 -26 70 -29 155 -29 90 0 99 2 172 38 77 38 125 84
161 155 9 17 19 32 23 32 3 0 44 -20 89 -46 55 -29 84 -51 84 -62 0 -32 -59
-119 -115 -170 -31 -28 -93 -70 -138 -92 -322 -159 -664 -36 -832 299 -76 150
-97 343 -55 505 61 241 247 431 470 481 91 21 256 13 334 -14z"/>
</g>
</svg>
