<?xml version="1.0" standalone="no"?>
<!DOCTYPE svg PUBLIC "-//W3C//DTD SVG 20010904//EN"
 "http://www.w3.org/TR/2001/REC-SVG-20010904/DTD/svg10.dtd">
<svg version="1.0" xmlns="http://www.w3.org/2000/svg"
 width="260.000000pt" height="260.000000pt" viewBox="0 0 260.000000 260.000000"
 preserveAspectRatio="xMidYMid meet">
<metadata>
Created by potrace 1.14, written by Peter Selinger 2001-2017
</metadata>
<g transform="translate(0.000000,260.000000) scale(0.100000,-0.100000)"
fill="#000000" stroke="none">
<path d="M130 2587 c-47 -15 -107 -78 -120 -126 -7 -27 -9 -395 -8 -1178 3
-1132 3 -1138 24 -1178 11 -22 40 -53 63 -70 l43 -30 1161 0 c1159 0 1162 0
1202 21 22 11 54 40 70 63 l30 43 0 1161 c0 1159 0 1162 -21 1202 -11 22 -40
54 -63 70 l-43 30 -1151 2 c-820 1 -1162 -2 -1187 -10z m867 -1069 c-5 -511
-8 -551 -56 -680 -59 -156 -198 -237 -407 -238 -85 0 -151 11 -224 40 -92 35
-92 35 -68 113 11 37 23 67 27 67 4 0 26 -9 49 -20 63 -31 136 -43 231 -38
141 7 210 60 248 193 15 52 17 125 21 553 l3 492 91 0 90 0 -5 -482z m1017
462 c95 -24 158 -57 229 -121 50 -45 117 -134 117 -155 0 -5 -29 -28 -64 -51
l-64 -42 -33 50 c-39 61 -97 110 -175 146 -54 26 -69 28 -174 28 -104 0 -120
-3 -173 -27 -81 -38 -130 -79 -182 -153 -71 -100 -97 -179 -103 -315 -2 -68 0
-139 7 -172 18 -87 74 -192 137 -258 110 -115 208 -156 352 -147 73 4 96 11
168 46 83 42 138 91 171 156 9 17 17 31 18 33 2 2 81 -39 123 -65 l23 -14 -28
-50 c-60 -111 -208 -211 -369 -250 -259 -62 -505 42 -658 278 -112 174 -150
367 -110 561 80 386 425 615 788 522z"/>
</g>
</svg>
